<svg width="159" height="171" viewBox="0 0 159 171" fill="none" xmlns="http://www.w3.org/2000/svg">
<path d="M131.777 24.0041V146.065C131.777 146.567 132.28 146.906 132.743 146.719C136.537 145.169 150.501 139.041 157.803 135.694C158.261 135.483 158.684 134.634 158.684 134.08C158.724 101.528 158.712 68.9757 158.744 36.4234C158.744 35.256 158.289 34.7619 157.3 34.3236C151.495 31.7577 145.722 29.1201 139.932 26.5222C137.634 25.4903 135.324 24.4862 132.763 23.3626C132.3 23.1594 131.777 23.4981 131.777 24.0041Z" fill="#FBDA5B"/>
<path d="M31.5627 41.2368C32.3048 40.922 33.1267 41.4639 33.1267 42.2687C33.1227 77.5663 33.1227 112.864 33.0908 148.161C33.0908 149.5 33.3302 150.353 34.6947 150.963C48.974 157.334 63.2174 163.792 77.5047 170.147C78.5699 170.621 80.3135 170.621 81.3787 170.143C95.4227 163.876 109.411 157.481 123.471 151.253C125.31 150.437 125.825 149.44 125.809 147.588C125.737 139.906 125.793 132.224 125.793 124.542C125.789 90.5155 125.765 56.485 125.805 22.4584C125.805 20.7611 125.31 19.8925 123.686 19.2032C118.2 16.8723 112.806 14.3303 107.368 11.8879C105.094 10.8679 102.804 9.87976 100.302 8.79601C99.556 8.46929 98.7142 9.01913 98.7142 9.83195C98.7142 10.2702 98.7142 10.6687 98.7142 11.0671C98.7182 52.142 98.7182 93.217 98.7182 134.292C98.7182 136.133 98.7301 137.973 98.6543 139.814C98.6344 140.324 98.4509 141.085 98.0958 141.276C96.9547 141.89 95.7697 142.416 94.4571 143.002C93.707 143.332 92.8612 142.787 92.8612 141.97V141.46C92.8572 96.8308 92.8453 52.1978 92.8852 7.56882C92.8852 6.07867 92.4782 5.32562 91.0618 4.73593C87.7543 3.36132 84.5585 1.72773 81.263 0.325226C80.2456 -0.109071 78.5819 -0.10907 77.5645 0.329211C74.3249 1.71577 71.1809 3.32944 67.9293 4.69608C66.485 5.30569 65.9863 6.05874 65.9863 7.64851C66.0302 52.2775 66.0142 96.9065 66.0102 141.539V141.962C66.0102 142.691 65.324 143.233 64.6178 143.061C60.8275 142.141 60.1772 140.954 60.1772 136.786C60.1932 94.6952 60.2091 52.6042 60.2131 10.5173C60.2131 10.2782 60.2011 10.0351 60.1772 9.78413C60.1134 9.01913 59.3194 8.53702 58.6092 8.83187C58.3658 8.93546 58.1344 9.03507 57.903 9.13866C52.469 11.601 47.0549 14.0992 41.6089 16.5257C28.3988 22.4146 15.1808 28.2836 1.94679 34.1167C0.59825 34.7104 0.143414 35.4634 0.147404 36.9775C0.199271 69.0358 0.203265 101.098 0.12746 133.156C0.12347 134.949 0.753849 135.694 2.28192 136.36C8.62164 139.121 14.9095 142.01 21.2213 144.831C22.6496 145.472 24.0939 146.082 25.6978 146.763C26.4439 147.082 27.2737 146.536 27.2737 145.723V144.293C27.2737 112.358 27.2737 80.4271 27.2737 48.4923C27.2737 47.0938 27.2458 45.6953 27.3376 44.3048C27.3695 43.8027 27.5769 43.0656 27.936 42.8784C29.0811 42.2887 30.266 41.7906 31.5627 41.2368Z" fill="white"/>
<path d="M131.777 23.9729C131.777 23.4789 132.284 23.1521 132.739 23.3474C135.312 24.475 137.63 25.483 139.936 26.5189C145.726 29.1168 151.499 31.7544 157.304 34.3204C158.297 34.7586 158.752 35.2567 158.748 36.4201C158.716 68.9725 158.728 101.525 158.688 134.077C158.688 134.631 158.265 135.484 157.807 135.691C150.489 139.042 136.382 145.632 132.683 146.899C132.24 147.05 131.777 146.72 131.777 146.253V23.9729Z" fill="#FBDA5B"/>
</svg>
